<svg 
 xmlns="http://www.w3.org/2000/svg"
 xmlns:xlink="http://www.w3.org/1999/xlink"
 width="1372px" height="1662px">
<defs>
<filter filterUnits="userSpaceOnUse" id="Filter_0" x="-207px" y="-215px" width="1814px" height="2114px"  >
    <feOffset in="SourceAlpha" dx="0" dy="21" />
    <feGaussianBlur result="blurOut" stdDeviation="5.385" />
    <feFlood flood-color="rgb(0, 0, 0)" result="floodOut" />
    <feComposite operator="atop" in="floodOut" in2="blurOut" />
    <feComponentTransfer><feFuncA type="linear" slope="0.19"/></feComponentTransfer>
    <feMerge>
    <feMergeNode/>
    <feMergeNode in="SourceGraphic"/>
  </feMerge>
</filter>

</defs>
<g filter="url(#Filter_0)">
<path fill-rule="evenodd"  fill="rgb(250, 247, 235)"
 d="M27.000,15.000 L1307.000,15.000 C1312.523,15.000 1317.000,19.477 1317.000,25.000 L1317.000,1605.000 C1317.000,1610.523 1312.523,1615.000 1307.000,1615.000 L27.000,1615.000 C21.477,1615.000 17.000,1610.523 17.000,1605.000 L17.000,25.000 C17.000,19.477 21.477,15.000 27.000,15.000 Z"/>
<path fill-rule="evenodd"  fill="rgb(197, 198, 187)"
 d="M17.000,1171.000 L17.000,1166.000 L1317.000,1166.000 L1317.000,1171.000 L17.000,1171.000 Z"/>
<path fill-rule="evenodd"  fill="rgb(197, 198, 187)"
 d="M17.000,462.000 L17.000,457.000 L1317.000,457.000 L1317.000,462.000 L17.000,462.000 Z"/>
<path fill-rule="evenodd"  stroke="rgb(197, 198, 187)" stroke-width="10px" stroke-linecap="butt" stroke-linejoin="miter" fill="rgb(254, 255, 249)"
 d="M27.000,540.000 L1307.000,540.000 C1312.523,540.000 1317.000,544.477 1317.000,550.000 L1317.000,1080.000 C1317.000,1085.523 1312.523,1090.000 1307.000,1090.000 L27.000,1090.000 C21.477,1090.000 17.000,1085.523 17.000,1080.000 L17.000,550.000 C17.000,544.477 21.477,540.000 27.000,540.000 Z"/>
<path fill-rule="evenodd"  stroke="rgb(230, 231, 220)" stroke-width="8px" stroke-linecap="butt" stroke-linejoin="miter" fill="rgb(254, 255, 249)"
 d="M1176.500,615.000 C1226.482,615.000 1267.000,655.518 1267.000,705.500 L1267.000,924.500 C1267.000,974.482 1226.482,1015.000 1176.500,1015.000 C1126.518,1015.000 1086.000,974.482 1086.000,924.500 L1086.000,705.500 C1086.000,655.518 1126.518,615.000 1176.500,615.000 Z"/>
<path fill-rule="evenodd"  fill="rgb(58, 94, 249)"
 d="M1177.000,842.000 C1221.735,842.000 1258.000,878.265 1258.000,923.000 C1258.000,967.735 1221.735,1004.000 1177.000,1004.000 C1132.265,1004.000 1096.000,967.735 1096.000,923.000 C1096.000,878.265 1132.265,842.000 1177.000,842.000 Z"/>
<path fill-rule="evenodd"  fill="rgb(58, 94, 249)"
 d="M1177.000,627.000 C1221.735,627.000 1258.000,663.265 1258.000,708.000 C1258.000,752.735 1221.735,789.000 1177.000,789.000 C1132.265,789.000 1096.000,752.735 1096.000,708.000 C1096.000,663.265 1132.265,627.000 1177.000,627.000 Z"/>
<path fill-rule="evenodd"  fill="rgb(230, 231, 220)"
 d="M1101.000,810.000 L1253.000,810.000 C1255.761,810.000 1258.000,812.239 1258.000,815.000 C1258.000,817.761 1255.761,820.000 1253.000,820.000 L1101.000,820.000 C1098.239,820.000 1096.000,817.761 1096.000,815.000 C1096.000,812.239 1098.239,810.000 1101.000,810.000 Z"/>
<path fill-rule="evenodd"  stroke="rgb(230, 231, 220)" stroke-width="10px" stroke-linecap="butt" stroke-linejoin="miter" fill="rgb(70, 70, 66)"
 d="M467.000,708.000 L1008.000,708.000 L1008.000,923.000 L467.000,923.000 L467.000,708.000 Z"/>
<path fill-rule="evenodd"  stroke="rgb(230, 231, 220)" stroke-width="5px" stroke-linecap="butt" stroke-linejoin="miter" fill="rgb(70, 70, 66)"
 d="M230.000,799.000 C238.837,799.000 246.000,806.163 246.000,815.000 C246.000,823.837 238.837,831.000 230.000,831.000 C221.163,831.000 214.000,823.837 214.000,815.000 C214.000,806.163 221.163,799.000 230.000,799.000 Z"/>
<path fill-rule="evenodd"  fill="rgb(180, 180, 180)"
 d="M549.000,198.000 L784.000,198.000 C786.761,198.000 789.000,200.239 789.000,203.000 L789.000,207.000 C789.000,209.761 786.761,212.000 784.000,212.000 L549.000,212.000 C546.239,212.000 544.000,209.761 544.000,207.000 L544.000,203.000 C544.000,200.239 546.239,198.000 549.000,198.000 Z"/>
<path fill-rule="evenodd"  fill="rgb(213, 213, 213)"
 d="M667.500,142.000 C702.018,142.000 730.000,169.982 730.000,204.500 C730.000,239.018 702.018,267.000 667.500,267.000 C632.982,267.000 605.000,239.018 605.000,204.500 C605.000,169.982 632.982,142.000 667.500,142.000 Z"/>
<path fill-rule="evenodd"  fill="rgb(151, 151, 151)"
 d="M634.061,244.004 L626.996,236.939 L698.939,164.996 L706.004,172.061 L634.061,244.004 Z"/>
<path fill-rule="evenodd"  fill="rgb(180, 180, 180)"
 d="M937.000,1394.000 L1172.000,1394.000 C1174.761,1394.000 1177.000,1396.239 1177.000,1399.000 L1177.000,1403.000 C1177.000,1405.761 1174.761,1408.000 1172.000,1408.000 L937.000,1408.000 C934.239,1408.000 932.000,1405.761 932.000,1403.000 L932.000,1399.000 C932.000,1396.239 934.239,1394.000 937.000,1394.000 Z"/>
<path fill-rule="evenodd"  fill="rgb(213, 213, 213)"
 d="M1055.500,1338.000 C1090.018,1338.000 1118.000,1365.982 1118.000,1400.500 C1118.000,1435.018 1090.018,1463.000 1055.500,1463.000 C1020.982,1463.000 993.000,1435.018 993.000,1400.500 C993.000,1365.982 1020.982,1338.000 1055.500,1338.000 Z"/>
<path fill-rule="evenodd"  fill="rgb(151, 151, 151)"
 d="M1022.061,1440.004 L1014.996,1432.939 L1086.939,1360.996 L1094.004,1368.061 L1022.061,1440.004 Z"/>
</g>
</svg>