<svg 
 xmlns="http://www.w3.org/2000/svg"
 xmlns:xlink="http://www.w3.org/1999/xlink"
 width="1258px" height="1658px">
<defs>
<filter filterUnits="userSpaceOnUse" id="Filter_0" x="-262px" y="-215px" width="1814px" height="2114px"  >
    <feOffset in="SourceAlpha" dx="0" dy="21" />
    <feGaussianBlur result="blurOut" stdDeviation="5.385" />
    <feFlood flood-color="rgb(0, 0, 0)" result="floodOut" />
    <feComposite operator="atop" in="floodOut" in2="blurOut" />
    <feComponentTransfer><feFuncA type="linear" slope="0.19"/></feComponentTransfer>
    <feMerge>
    <feMergeNode/>
    <feMergeNode in="SourceGraphic"/>
  </feMerge>
</filter>

</defs>
<g filter="url(#Filter_0)">
<path fill-rule="evenodd"  fill="rgb(199, 218, 74)"
 d="M52.000,15.000 L1172.000,15.000 C1194.091,15.000 1212.000,32.909 1212.000,55.000 L1212.000,1575.000 C1212.000,1597.091 1194.091,1615.000 1172.000,1615.000 L52.000,1615.000 C29.909,1615.000 12.000,1597.091 12.000,1575.000 L12.000,55.000 C12.000,32.909 29.909,15.000 52.000,15.000 Z"/>
<path fill-rule="evenodd"  stroke="rgb(180, 197, 69)" stroke-width="2px" stroke-linecap="butt" stroke-linejoin="miter" fill="none"
 d="M582.000,102.000 L642.000,102.000 C647.523,102.000 652.000,106.477 652.000,112.000 L652.000,172.000 C652.000,177.523 647.523,182.000 642.000,182.000 L582.000,182.000 C576.477,182.000 572.000,177.523 572.000,172.000 L572.000,112.000 C572.000,106.477 576.477,102.000 582.000,102.000 Z"/>
<path fill-rule="evenodd"  fill="rgb(54, 54, 54)"
 d="M592.000,117.000 L632.000,117.000 C634.761,117.000 637.000,119.239 637.000,122.000 L637.000,162.000 C637.000,164.761 634.761,167.000 632.000,167.000 L592.000,167.000 C589.239,167.000 587.000,164.761 587.000,162.000 L587.000,122.000 C587.000,119.239 589.239,117.000 592.000,117.000 Z"/>
<path fill-rule="evenodd"  fill="rgb(204, 204, 204)"
 d="M316.000,332.000 L906.000,332.000 C917.046,332.000 926.000,340.954 926.000,352.000 L926.000,1102.000 C926.000,1113.046 917.046,1122.000 906.000,1122.000 L316.000,1122.000 C304.954,1122.000 296.000,1113.046 296.000,1102.000 L296.000,352.000 C296.000,340.954 304.954,332.000 316.000,332.000 Z"/>
<path fill-rule="evenodd"  fill="rgb(235, 235, 235)"
 d="M337.000,350.000 L887.000,350.000 C898.046,350.000 907.000,358.954 907.000,370.000 L907.000,1080.000 C907.000,1091.046 898.046,1100.000 887.000,1100.000 L337.000,1100.000 C325.954,1100.000 317.000,1091.046 317.000,1080.000 L317.000,370.000 C317.000,358.954 325.954,350.000 337.000,350.000 Z"/>
<path fill-rule="evenodd"  fill="rgb(240, 240, 240)"
 d="M406.000,505.000 L816.000,505.000 C827.046,505.000 836.000,513.954 836.000,525.000 L836.000,968.000 C836.000,979.046 827.046,988.000 816.000,988.000 L406.000,988.000 C394.954,988.000 386.000,979.046 386.000,968.000 L386.000,525.000 C386.000,513.954 394.954,505.000 406.000,505.000 Z"/>
<path fill-rule="evenodd"  fill="rgb(99, 99, 99)"
 d="M387.000,665.000 L837.000,665.000 L837.000,785.000 L387.000,785.000 L387.000,665.000 Z"/>
<path fill-rule="evenodd"  fill="rgb(185, 185, 185)"
 d="M447.000,988.000 L587.000,988.000 L587.000,1068.000 C587.000,1073.523 582.523,1078.000 577.000,1078.000 L457.000,1078.000 C451.477,1078.000 447.000,1073.523 447.000,1068.000 L447.000,988.000 Z"/>
<path fill-rule="evenodd"  fill="rgb(185, 185, 185)"
 d="M637.000,988.000 L777.000,988.000 L777.000,1068.000 C777.000,1073.523 772.523,1078.000 767.000,1078.000 L647.000,1078.000 C641.477,1078.000 637.000,1073.523 637.000,1068.000 L637.000,988.000 Z"/>
<path fill-rule="evenodd"  fill="rgb(171, 187, 66)"
 d="M542.000,1462.000 L682.000,1462.000 L682.000,1482.000 L542.000,1482.000 L542.000,1462.000 Z"/>
<path fill-rule="evenodd"  fill="rgb(235, 235, 235)"
 d="M598.000,1432.000 L627.000,1432.000 L627.000,1512.000 L598.000,1512.000 L598.000,1432.000 Z"/>
</g>
</svg>